<?xml version="1.0" encoding="iso-8859-1"?>
<!-- Generator: Adobe Illustrator 19.0.0, SVG Export Plug-In . SVG Version: 6.00 Build 0)  -->
<svg version="1.1" id="Capa_1" xmlns="http://www.w3.org/2000/svg" xmlns:xlink="http://www.w3.org/1999/xlink" x="0px" y="0px"
	 viewBox="0 0 512.001 512.001" style="enable-background:new 0 0 512.001 512.001;" xml:space="preserve">
<path style="fill:#E22342;" d="M302.455,276.695l-49.56,83.901l0.75,0.426c14.337,8.192,22.438,23.198,22.438,38.691
	c0,6.966-1.643,14.032-5.09,20.613l-85.787-49.438l-21.008-12.106l64.089-108.265l-32.932-16.385l-35.629-17.733
	c-50.107-24.932-32.364-100.407,23.604-100.407h143.305L302.455,276.695z"/>
<polygon style="fill:#C9183A;" points="245.098,258.881 185.561,370.856 185.206,370.887 164.198,358.781 228.287,250.516 "/>
<g>
	<path style="fill:#F7CF2B;" d="M326.636,115.991l-14.752,98.085L184.821,151.62l-39.867-19.589
		c9.074-9.663,22.113-16.04,38.376-16.04C183.331,115.991,326.636,115.991,326.636,115.991z"/>
	<path style="fill:#F7CF2B;" d="M276.093,399.702c0,6.966-1.643,14.032-5.1,20.623l-85.787-49.438l-21.008-12.106l34.321-57.965
		l18.849,10.23l49.063,26.625l-13.536,22.924l0.76,0.426C267.992,369.214,276.093,384.22,276.093,399.702z"/>
</g>
<path style="fill:#F9DCA2;" d="M359.698,180.598c13.095,9.474,29.182,15.049,46.585,15.049c43.99,0,79.652-35.662,79.652-79.652
	s-35.662-79.652-79.652-79.652s-79.652,35.662-79.652,79.652c0,12.588,2.921,24.499,8.135,35.083"/>
<path style="fill:#C9183A;" d="M195.356,234.131l-35.629-17.733c-50.107-24.932-32.364-100.407,23.604-100.407h112.351
	C250.056,115.991,126.288,131.686,195.356,234.131z"/>
<g>
	<path style="fill:#E0BC24;" d="M295.682,115.991c-28.47,0-87.399,6.114-110.86,35.629l-39.867-19.589
		c9.074-9.663,22.113-16.04,38.376-16.04C183.331,115.991,295.682,115.991,295.682,115.991z"/>
	<polygon style="fill:#E0BC24;" points="217.368,311.046 185.561,370.856 185.206,370.887 164.198,358.781 198.519,300.816 	"/>
</g>
<path style="fill:#E5C691;" d="M406.283,36.343c6.534,0,12.878,0.804,18.955,2.288c-34.836,8.508-60.697,39.908-60.697,77.364
	c0,37.47,25.881,68.88,60.736,77.373c-6.085,1.489-12.446,2.279-18.993,2.279c-43.99,0-79.652-35.663-79.652-79.652
	C326.63,72.005,362.292,36.343,406.283,36.343z"/>
<path style="fill:#E22342;" d="M485.931,115.991H326.626c0-43.983,35.669-79.652,79.652-79.652c6.428,0,12.684,0.76,18.676,2.2
	c0.02,0.01,0.051,0.02,0.071,0.02C459.975,46.995,485.931,78.466,485.931,115.991z"/>
<path style="fill:#C9183A;" d="M425.238,38.63c-34.838,8.507-60.703,39.907-60.703,77.361h-37.91
	c0-43.983,35.669-79.652,79.652-79.652c6.428,0,12.684,0.76,18.676,2.2c0.02,0.01,0.051,0.02,0.071,0.02
	C425.097,38.589,425.168,38.61,425.238,38.63z"/>
<path style="fill:#F7CF2B;" d="M257.508,210.13l50.685-50.685c11.784-11.783,30.886-11.783,42.669,0
	c11.783,11.783,11.783,30.887,0,42.669l-20.872,20.872l53.684,26.388l15.279,7.51c14.954,7.35,21.119,25.432,13.768,40.386
	c-5.246,10.673-15.959,16.869-27.1,16.869c-4.468,0-9.007-0.997-13.286-3.101l-106.803-52.498
	c-8.737-4.294-14.864-12.539-16.457-22.143C247.484,226.795,250.624,217.013,257.508,210.13z"/>
<path style="fill:#E0BC24;" d="M268.398,246.537c-1.592-9.604,1.547-19.385,8.432-26.268l50.685-50.685
	c6.76-6.759,15.926-9.632,24.74-8.637c-0.447-0.511-0.906-1.015-1.393-1.502c-11.784-11.783-30.886-11.783-42.669,0l-50.685,50.685
	c-6.884,6.883-10.023,16.666-8.432,26.268c1.592,9.604,7.72,17.849,16.457,22.143l14.354,7.056
	C273.827,260.981,269.668,254.195,268.398,246.537z"/>
<path style="fill:#F9DCA2;" d="M357.056,303.525v0.01l15.269,7.503c4.289,2.109,8.821,3.103,13.292,3.103
	c11.143,0,21.85-6.195,27.102-16.871c7.351-14.955,1.186-33.033-13.769-40.384l-15.28-7.513L357.056,303.525z"/>
<circle style="fill:#F7CF2B;" cx="329.885" cy="36.573" r="28.963"/>
<path style="fill:#E0BC24;" d="M324.06,36.569c0-11.881,7.156-22.085,17.392-26.552c-3.545-1.547-7.456-2.411-11.572-2.411
	c-15.995,0-28.963,12.968-28.963,28.963s12.967,28.963,28.963,28.963c4.115,0,8.027-0.864,11.572-2.411
	C331.217,58.654,324.06,48.45,324.06,36.569z"/>
<path d="M493.532,475.061c-2.807-3.076-7.652-3.144-10.81-0.431l-9.118,7.83c-19.109,16.41-46.611,18.985-68.437,6.41
	l-124.486-71.738c7.665-21.37,0.593-45.213-17.539-58.937l42.281-71.574l63.556,31.239c5.239,2.575,10.837,3.88,16.64,3.88
	c0.001,0,0.001,0,0.002,0c14.521,0,27.52-8.092,33.923-21.119c3.634-7.393,4.737-15.581,3.249-23.536l14.844,7.299
	c1.079,0.53,2.223,0.782,3.35,0.782c2.983,0,5.844-1.762,7.062-4.767c1.513-3.737-0.335-8.008-3.952-9.787l-41.528-20.419
	c-0.088-0.044-0.172-0.093-0.262-0.137l-43.774-21.516l-5.068-2.492c-0.005-0.002-0.01-0.004-0.015-0.006l-10.57-5.195
	l13.358-13.358c4.144-4.144,7.199-9.085,9.038-14.472c12.841,6.87,27.172,10.397,42.019,10.228
	c47.619-0.538,86.331-39.791,86.244-87.414c-0.088-48.039-39.198-87.094-87.257-87.094c-14.366,0-27.919,3.511-39.882,9.688
	c0.031-0.615,0.047-1.234,0.047-1.857c0-21.027-17.841-37.967-39.18-36.476c-18.013,1.258-32.605,15.85-33.863,33.863
	c-1.49,21.34,15.449,39.18,36.476,39.18c0.15,0,0.298-0.01,0.448-0.011c-5.998,10.584-9.845,22.533-10.95,35.261H183.326
	c-14.958,0-28.54,4.841-39.277,14.003c-0.179,0.153-0.351,0.315-0.529,0.47l-33.452-16.441l5.655-11.309
	c1.73-3.459,0.785-7.786-2.431-9.934c-3.888-2.599-9.033-1.143-11.057,2.904l-5.816,11.632L74.164,88.77
	c-3.737-1.837-8.411-0.559-10.359,3.121c-2.016,3.808-0.475,8.501,3.364,10.386l22.449,11.033l-5.353,10.706
	c-1.816,3.631-0.676,8.185,2.832,10.228c1.216,0.708,2.535,1.041,3.832,1.041c2.789,0,5.475-1.541,6.807-4.205l5.531-11.062
	l29.903,14.698c-4.075,6.136-7.098,13.062-8.82,20.388c-3.016,12.833-1.929,26.352,3.06,38.067
	c5.531,12.985,15.532,23.371,28.925,30.035l11.155,5.551c3.76,1.871,8.324,0.34,10.196-3.42l0,0c1.871-3.76,0.34-8.324-3.42-10.196
	l-11.155-5.551c-23.753-11.82-27.75-34.864-23.955-51.006c1.333-5.67,3.912-11.67,7.837-17.074l112.892,55.486l-7.755,7.755l0,0
	c-8.599,8.598-12.545,20.894-10.557,32.889c1.988,11.996,9.691,22.36,20.604,27.724l29.556,14.528l-28.119,47.6l-54.537-29.6
	l25.752-43.5c1.582-2.672,1.426-6.131-0.673-8.722c-0.701-0.865-1.62-1.531-2.617-2.027l-25.998-12.937
	c-3.76-1.871-8.324-0.34-10.196,3.42l0,0c-1.871,3.76-0.34,8.324,3.42,10.196l18.81,9.36l-56.097,94.758l-133.597-76.99
	c-3.639-2.098-8.289-0.848-10.385,2.791c-2.097,3.639-0.847,8.289,2.791,10.385l377.286,217.42
	c11.587,6.677,24.446,9.953,37.247,9.953c17.476,0,34.84-6.107,48.691-18.002l9.36-8.039
	C496.118,483.174,496.436,478.244,493.532,475.061z M407.002,276.679c1.945,5.705,1.551,11.826-1.107,17.236
	c-3.825,7.784-11.595,12.619-20.275,12.619c-3.457,0-6.799-0.781-9.931-2.321l-8.454-4.155l19.907-40.5l8.585,4.221
	C401.07,266.447,405.074,271.019,407.002,276.679z M406.283,188.043c-14.08,0-27.569-4.016-39.238-11.632
	c-0.965-8.437-4.712-16.25-10.807-22.344c-4.647-4.647-10.215-7.823-16.121-9.538c-2.899-6.682-4.734-13.689-5.485-20.935H441.98
	l-0.583,12.171c-0.201,4.195,3.037,7.758,7.231,7.959c0.124,0.006,0.247,0.009,0.37,0.009c4.033,0,7.394-3.169,7.589-7.24
	l0.617-12.899h20.721C474.118,159.762,443.443,188.043,406.283,188.043z M466.391,76.335h-15.209c-4.2,0-7.604,3.405-7.604,7.604
	l0,0c0,4.2,3.405,7.604,7.604,7.604h22.87c1.937,5.35,3.257,10.993,3.874,16.842H334.639c0.617-5.85,1.938-11.492,3.874-16.842
	h77.182c4.2,0,7.604-3.405,7.604-7.604l0,0c0-4.2-3.405-7.604-7.604-7.604h-69.52c12.907-19.496,35.026-32.388,60.108-32.388
	S453.484,56.838,466.391,76.335z M308.522,36.569c0-11.778,9.581-21.359,21.358-21.359s21.359,9.581,21.359,21.359
	s-9.581,21.359-21.359,21.359S308.522,48.346,308.522,36.569z M158.777,130.358c6.506-4.134,14.642-6.764,24.549-6.764h136.023
	c0.582,6.826,1.96,13.482,4.109,19.924c-7.563,1.222-14.823,4.731-20.642,10.549l-31.568,31.569L158.777,130.358z M256.578,235.155
	c-1.188-7.166,1.169-14.511,6.306-19.647l0,0l50.684-50.685c4.4-4.399,10.179-6.598,15.958-6.598c5.778,0,11.559,2.2,15.957,6.598
	c4.262,4.262,6.611,9.93,6.611,15.958c0,6.028-2.347,11.695-6.611,15.958l-20.872,20.872c-1.735,1.735-2.527,4.201-2.125,6.621
	c0.402,2.42,1.946,4.499,4.147,5.581l24.027,11.81l22.832,11.227l-19.908,40.501l-84.699-41.632
	C262.368,248.513,257.766,242.321,256.578,235.155z M201.326,310.99l54.549,29.607l-9.528,16.128
	c-1.035,1.752-1.325,3.847-0.803,5.814c0.521,1.968,1.809,3.644,3.576,4.655l0.756,0.433c14.953,8.545,21.707,25.806,17.322,41.737
	l-92.54-53.328L201.326,310.99z"/>
<g>
</g>
<g>
</g>
<g>
</g>
<g>
</g>
<g>
</g>
<g>
</g>
<g>
</g>
<g>
</g>
<g>
</g>
<g>
</g>
<g>
</g>
<g>
</g>
<g>
</g>
<g>
</g>
<g>
</g>
</svg>
